<?xml version="1.0" encoding="utf-8"?>
<!-- Generator: Adobe Illustrator 15.1.0, SVG Export Plug-In . SVG Version: 6.00 Build 0)  -->
<!DOCTYPE svg PUBLIC "-//W3C//DTD SVG 1.1//EN" "http://www.w3.org/Graphics/SVG/1.1/DTD/svg11.dtd">
<svg version="1.1" xmlns="http://www.w3.org/2000/svg" xmlns:xlink="http://www.w3.org/1999/xlink" x="0px" y="0px" width="1000px"
	 height="240px" viewBox="0 0 1000 240" enable-background="new 0 0 1000 240" xml:space="preserve">
<g id="Fond">
	<rect fill="#97BF3D" width="1000" height="240"/>
</g>
<g id="Text">
	<g>
		<path fill="#FFFFFF" d="M53.082,83.58c-7.375,0-11.42,4.342-11.42,11.598c0,6.603,3.45,11.717,7.613,15.048l19.033,15.227
			c7.792,6.305,15.227,15.821,15.227,29.442c0,15.821-10.646,24.921-26.646,24.921c-19.925,0-29.323-12.906-30.453-31.523
			l15.227-3.807c0.536,11.004,3.688,22.84,15.227,22.84c7.613,0,11.42-3.807,11.42-11.42c0-9.576-5.888-14.572-11.42-19.033
			l-19.033-15.227c-6.542-5.115-11.479-13.561-11.479-24.862c0-15.821,10.706-25.695,26.706-25.695
			c18.855,0,29.085,10.409,30.453,27.717l-15.227,3.807C67.654,92.502,63.848,83.58,53.082,83.58z"/>
		<path fill="#FFFFFF" d="M114.353,179.816c-12.252,0-17.13-6.424-17.249-18.438v-47.345H89.49v-11.42h7.613V75.967h15.227v26.646
			h11.42v11.42h-11.42v44.431c0,5.412,0.833,8.862,6.305,8.862c1.428,0,3.748-0.356,5.115-0.595v12.371
			C119.943,179.579,118.04,179.816,114.353,179.816z"/>
		<path fill="#FFFFFF" d="M164.973,101.542c0.773,0,1.309,0.119,2.438,0.238v16.833c-2.26-0.893-5.472-1.666-8.446-1.666
			c-6.305,0-10.587,4.104-10.587,10.409v51.39h-15.227v-76.133h15.227v10.171C151.114,107.491,157.122,101.542,164.973,101.542z"/>
		<path fill="#FFFFFF" d="M215.059,125.453v34.26c0,7.792,0.476,13.621,1.963,19.033h-15.167l-2.022-11.42
			c-3.034,6.008-6.424,12.49-15.227,12.49c-8.803,0-15.227-9.04-15.227-17.902c0-19.807,15.762-25.22,30.453-30.989v-5.472
			c0-6.721-1.249-12.134-7.613-12.134c-6.246,0-7.613,5.472-7.613,12.134h-15.227c0.178-14.394,8.386-23.911,22.84-23.911
			C206.672,101.542,215.059,111.297,215.059,125.453z M184.605,157.869c0,5.71,2.141,9.457,7.613,9.457
			c3.688,0,6.007-3.45,7.613-5.591V140.68C193.825,144.725,184.605,148.649,184.605,157.869z"/>
		<path fill="#FFFFFF" d="M247.123,114.033c-4.817,0-7.613,2.736-7.613,7.613c0,2.975,2.142,5.175,3.807,6.424l15.227,11.42
			c6.008,4.817,11.42,10.587,11.42,20.223c0,13.323-9.338,20.104-22.84,20.104c-13.382,0-20.282-9.278-22.84-20.104l11.42-3.807
			c1.725,4.817,4.997,11.42,11.42,11.42c4.818,0,7.613-2.736,7.613-7.613c0-4.163-1.665-6.84-3.807-8.803l-15.227-11.42
			c-5.769-3.985-11.42-8.803-11.42-17.844c0-13.323,9.338-20.104,22.84-20.104c13.621,0,20.283,9.279,22.84,20.104l-11.42,3.807
			C256.699,120.635,253.666,114.033,247.123,114.033z"/>
		<path fill="#FFFFFF" d="M310.235,179.816c-6.959,0-11.717-4.342-15.227-7.97v6.899h-15.227V72.22h15.227v37.947
			c4.104-4.342,7.97-8.625,15.464-8.625c18.617,0,18.795,22.245,18.795,41.874v1.011
			C329.269,159.892,325.462,179.816,310.235,179.816z M314.102,129.795c0-7.791-0.773-15.762-7.673-15.762
			c-4.223,0-8.625,1.368-11.42,3.033v47.881c3.39,1.368,7.494,2.379,11.42,2.379c6.84,0,7.732-11.063,7.732-21.056
			c0-3.449-0.119-6.78-0.119-9.457C314.042,134.672,314.102,132.233,314.102,129.795z"/>
		<path fill="#FFFFFF" d="M340.338,152.1v-22.84c0-16.892,5.71-27.717,22.84-27.717s22.84,10.825,22.84,27.717v22.84
			c0,16.892-5.71,27.717-22.84,27.717S340.338,168.991,340.338,152.1z M355.565,129.26v22.84c0,7.613,0,15.227,7.613,15.227
			s7.613-7.613,7.613-15.227v-22.84c0-7.613,0-15.227-7.613-15.227S355.565,121.646,355.565,129.26z"/>
		<path fill="#FFFFFF" d="M408.983,179.816c-6.781,0-11.063-5.531-11.063-12.312v-64.892h15.227v60.252
			c0,3.152,2.141,5.354,5.234,5.354c4.461,0,7.435-3.271,9.993-5.354v-60.252H443.6v76.133h-15.227v-8.208
			C422.96,175.355,418.083,179.816,408.983,179.816z"/>
		<path fill="#FFFFFF" d="M489.345,101.542c0.773,0,1.309,0.119,2.438,0.238v16.833c-2.26-0.893-5.472-1.666-8.446-1.666
			c-6.305,0-10.587,4.104-10.587,10.409v51.39h-15.227v-76.133h15.227v10.171C475.486,107.491,481.494,101.542,489.345,101.542z"/>
		<path fill="#FFFFFF" d="M517.78,101.542c8.743,0,12.906,3.569,16.416,8.981c2.498-4.639,6.84-8.981,14.037-8.981v12.491
			c-4.342,0-7.376,1.666-9.517,3.807c1.011,2.974,1.903,6.959,1.903,11.42c0,15.583-7.316,27.598-22.84,27.598
			c-1.666,0-3.331-0.178-4.818-0.416l-2.854-0.476c-0.714,1.309-2.082,3.033-2.082,4.877c0,5.532,14.691,4.937,20.104,5.65
			c10.23,1.368,20.104,4.461,20.104,16.06c0,14.216-12.669,18.974-26.646,18.974c-11.36,0-30.453-0.119-30.453-11.182
			c0-8.565,5.472-13.918,11.42-16.893c-3.509-0.951-7.613-3.093-7.613-6.661c0-5.71,4.937-11.301,7.613-14.691
			c-4.699-5.591-7.613-13.323-7.613-22.84C494.94,113.676,502.673,101.542,517.78,101.542z M534.91,184.635
			c0-0.654-0.06-1.309-0.238-1.963c-0.535-2.975-4.521-4.937-11.955-5.829l-12.55-1.487c-2.855,2.082-5.591,6.603-5.591,11.42
			c0,4.521,12.312,3.51,17.011,3.51C526.999,190.285,534.91,189.928,534.91,184.635z M517.78,112.13
			c-7.852,0-9.517,9.278-9.517,17.13c0,7.792,1.784,16.178,9.517,16.178c7.792,0,9.517-8.386,9.517-16.178
			C527.297,121.408,525.513,112.13,517.78,112.13z"/>
		<path fill="#FFFFFF" d="M600.047,83.58c-7.375,0-11.42,4.342-11.42,11.598c0,6.603,3.45,11.717,7.613,15.048l19.033,15.227
			c7.792,6.305,15.227,15.821,15.227,29.442c0,15.821-10.646,24.921-26.646,24.921c-19.925,0-29.323-12.906-30.453-31.523
			l15.227-3.807c0.535,11.004,3.688,22.84,15.227,22.84c7.613,0,11.42-3.807,11.42-11.42c0-9.576-5.889-14.572-11.42-19.033
			l-19.033-15.227c-6.542-5.115-11.479-13.561-11.479-24.862c0-15.821,10.706-25.695,26.706-25.695
			c18.855,0,29.085,10.409,30.453,27.717l-15.227,3.807C614.619,92.502,610.813,83.58,600.047,83.58z"/>
		<path fill="#FFFFFF" d="M661.317,179.816c-12.253,0-17.13-6.424-17.249-18.438v-47.345h-7.613v-11.42h7.613V75.967h15.227v26.646
			h11.42v11.42h-11.42v44.431c0,5.412,0.833,8.862,6.305,8.862c1.428,0,3.747-0.356,5.115-0.595v12.371
			C666.908,179.579,665.005,179.816,661.317,179.816z"/>
		<path fill="#FFFFFF" d="M722.109,125.453v34.26c0,7.792,0.476,13.621,1.963,19.033h-15.167l-2.022-11.42
			c-3.033,6.008-6.424,12.49-15.227,12.49s-15.227-9.04-15.227-17.902c0-19.807,15.762-25.22,30.453-30.989v-5.472
			c0-6.721-1.249-12.134-7.613-12.134c-6.245,0-7.613,5.472-7.613,12.134H676.43c0.179-14.394,8.387-23.911,22.84-23.911
			S722.109,111.297,722.109,125.453z M691.656,157.869c0,5.71,2.141,9.457,7.613,9.457c3.688,0,6.007-3.45,7.613-5.591V140.68
			C700.875,144.725,691.656,148.649,691.656,157.869z"/>
		<path fill="#FFFFFF" d="M766.783,101.542c0.773,0,1.309,0.119,2.438,0.238v16.833c-2.26-0.893-5.472-1.666-8.446-1.666
			c-6.305,0-10.587,4.104-10.587,10.409v51.39h-15.227v-76.133h15.227v10.171C752.925,107.491,758.932,101.542,766.783,101.542z"/>
		<path fill="#FFFFFF" d="M795.754,179.816c-12.253,0-17.13-6.424-17.249-18.438v-47.345h-7.613v-11.42h7.613V75.967h15.227v26.646
			h11.42v11.42h-11.42v44.431c0,5.412,0.833,8.862,6.305,8.862c1.428,0,3.747-0.356,5.115-0.595v12.371
			C801.345,179.579,799.441,179.816,795.754,179.816z"/>
		<path fill="#FFFFFF" d="M825.021,179.816c-6.781,0-11.063-5.531-11.063-12.312v-64.892h15.227v60.252
			c0,3.152,2.142,5.354,5.234,5.354c4.461,0,7.435-3.271,9.992-5.354v-60.252h15.227v76.133h-15.227v-8.208
			C838.998,175.355,834.121,179.816,825.021,179.816z"/>
		<path fill="#FFFFFF" d="M904.016,179.816c-6.899,0-11.776-4.282-15.227-7.91v29.68h-15.227v-98.973h15.227v7.613
			c4.163-4.401,7.97-8.684,15.465-8.684c18.616,0,18.795,22.245,18.795,41.814v1.13
			C923.049,159.951,919.242,179.816,904.016,179.816z M907.822,136.278c0-9.517-0.119-23.019-8.981-23.019
			c-4.163,0-7.256,2.201-10.052,3.866v47.107c3.331,1.963,7.197,3.093,11.42,3.093c6.84,0,7.732-11.063,7.732-20.996
			c0-3.449-0.119-6.78-0.119-9.457V136.278z"/>
		<path fill="#FFFFFF" d="M954.758,114.033c-4.818,0-7.613,2.736-7.613,7.613c0,2.975,2.141,5.175,3.807,6.424l15.227,11.42
			c6.007,4.817,11.42,10.587,11.42,20.223c0,13.323-9.339,20.104-22.84,20.104c-13.383,0-20.282-9.278-22.84-20.104l11.42-3.807
			c1.725,4.817,4.996,11.42,11.42,11.42c4.817,0,7.613-2.736,7.613-7.613c0-4.163-1.666-6.84-3.807-8.803l-15.227-11.42
			c-5.77-3.985-11.42-8.803-11.42-17.844c0-13.323,9.338-20.104,22.84-20.104c13.62,0,20.282,9.279,22.84,20.104l-11.42,3.807
			C964.334,120.635,961.3,114.033,954.758,114.033z"/>
	</g>
</g>
</svg>
